<?xml version="1.0" encoding="UTF-8"?><svg id="Calque_1" xmlns="http://www.w3.org/2000/svg" xmlns:xlink="http://www.w3.org/1999/xlink" viewBox="0 0 62 62"><defs><style>.cls-1{fill:url(#Dégradé_sans_nom_2);}</style><linearGradient id="Dégradé_sans_nom_2" x1="0" y1="31" x2="62" y2="31" gradientTransform="matrix(1, 0, 0, 1, 0, 0)" gradientUnits="userSpaceOnUse"><stop offset="0" stop-color="#1e58a5"/><stop offset="1" stop-color="#183e72"/></linearGradient></defs><path class="cls-1" d="M31,0C13.88,0,0,13.88,0,31s13.88,31,31,31,31-13.88,31-31S48.12,0,31,0Zm-12.67,16.35c1.37-4.04,6.62-7.09,12.22-7.09s10.55,2.85,12.09,6.76c.14,.36-.03,.78-.39,.93h0c-.35,.14-.75-.03-.89-.39h0c-1.15-2.93-5.23-5.88-10.8-5.88s-9.9,3.16-10.9,6.13c-.09,.28-.36,.48-.66,.48-.08,0-.16-.01-.23-.04h0c-.36-.14-.55-.54-.43-.9Zm-4.02,7.84v-3.43c-.01-1.71,1.36-3.12,3.08-3.14h26.33c1.72,.02,3.09,1.42,3.08,3.14v17.99l.82,1.64c.18,.35,.04,.77-.3,.95h0c-.1,.05-.2,.08-.31,.08-.27,0-.51-.15-.62-.39l-.9-1.8c-.05-.1-.07-.21-.07-.32V20.76c0-.94-.74-1.71-1.68-1.72H17.39c-.94,.01-1.69,.78-1.68,1.72v3.42c.04,.39-.24,.74-.63,.78h-.01c-.39,.04-.72-.24-.76-.63,0-.05,0-.1,0-.14Zm2.48,16.25c.12-.37,.52-.57,.88-.44,.37,.13,.56,.53,.44,.9-.01,.03-.03,.07-.04,.1l-.03,.06h24.99l-.02-.06c-.18-.35-.04-.78,.3-.96h0c.35-.18,.77-.04,.94,.31,.02,.03,.03,.07,.04,.1l.85,2.08c.15,.36-.02,.77-.38,.93-.09,.04-.18,.05-.27,.05-.28,0-.54-.17-.65-.44l-.24-.59H17.46l-.24,.58c-.11,.26-.36,.43-.65,.44-.09,0-.18-.02-.27-.06-.36-.15-.53-.57-.38-.92l.86-2.08h0Zm26.38-2.23c.39,0,.71,.32,.71,.71,0,.39-.32,.71-.71,.71H17.94c-.39,0-.7-.32-.7-.71,0-.39,.31-.71,.7-.71h25.23Zm-24.26-3.98v-11.2h0c0-.39,.31-.71,.7-.71h21.89c.39,0,.7,.32,.7,.71v11.2c0,.39-.31,.71-.7,.71H19.61c-.39,0-.7-.32-.7-.71Zm26.71,9.68c.39,0,.71,.32,.71,.71s-.32,.71-.71,.71H15.48c-.39,0-.7-.32-.7-.71h0c0-.39,.31-.71,.7-.71h30.14Zm-28.84,6.21h-4.62c-.39,0-.7-.32-.7-.71v-4.78c0-.11,.03-.22,.08-.32l2.77-5.54v-11.02c.03-.34,.3-.6,.63-.63,.38-.04,.73,.25,.76,.63v11.2c0,.11-.03,.22-.08,.32l-2.76,5.53v3.9h3.92c.39,0,.71,.32,.71,.71s-.32,.71-.71,.71Zm32.86-.71h0c0,.39-.31,.71-.7,.71H20.56c-.39,0-.71-.32-.71-.71s.32-.71,.71-.71h27.69v-3.89l-.5-1c-.15-.36,.03-.78,.39-.93,.32-.13,.68,0,.86,.29l.57,1.14c.05,.1,.08,.21,.08,.32v4.78Zm.73-17.26c-.06,.97-.89,1.7-1.86,1.65h-.4c-.39,0-.71-.32-.71-.71,0-.39,.32-.71,.71-.71h.4c.29,0,.46-.16,.46-.23v-7.01c0-.07-.17-.23-.46-.23h-.54c-.33-.04-.59-.3-.63-.63-.04-.39,.24-.75,.63-.79h.54c.97-.05,1.79,.68,1.86,1.65v7.01Zm2.66-3.49h0c0,.39-.31,.71-.7,.71h-.93c-.39,0-.71-.32-.71-.71,0-.39,.32-.71,.71-.71h.23v-7.62c0-.39,.31-.71,.7-.71h0c.39,0,.7,.31,.7,.7v8.34Zm-.73-9.93c-1.21-.02-2.18-1.02-2.16-2.24,.02-1.21,1.02-2.18,2.24-2.16,1.2,.01,2.17,1,2.16,2.2v.04c-.02,1.21-1.02,2.18-2.24,2.16Zm-26.09,5.04h-5.89v9.77h5.89v-9.77Zm-.77,3.12l-2.11,4.51c-.12,.24-.36,.4-.63,.4-.1,0-.21-.03-.3-.07-.35-.17-.49-.6-.33-.95l1.63-3.48h-1.99c-.39,0-.71-.31-.71-.71,0-.39,.32-.71,.71-.71h3.09c.39,0,.7,.33,.7,.72,0,.1-.02,.21-.07,.3Zm15.35-3.12h-5.89v9.77h5.9v-9.77Zm-.77,3.12l-2.11,4.51c-.12,.24-.36,.4-.63,.4-.1,0-.21-.03-.3-.07-.35-.17-.5-.6-.33-.95l1.64-3.48h-1.99c-.39,0-.71-.31-.71-.71,0-.39,.32-.71,.71-.71h3.09c.39,0,.7,.33,.7,.72,0,.1-.02,.21-.07,.3Zm-6.53-3.12h-5.89v9.77h5.89v-9.77Zm-.76,3.12l-2.11,4.51c-.12,.24-.36,.4-.63,.4-.1,0-.21-.03-.3-.07-.35-.17-.5-.6-.33-.95l1.64-3.48h-1.99c-.39,0-.71-.31-.71-.71,0-.39,.32-.71,.71-.71h3.09c.39,0,.7,.33,.7,.72,0,.1-.02,.21-.07,.3Z"/></svg>